<svg width="360" height="186" viewBox="0 0 360 186" fill="none" xmlns="http://www.w3.org/2000/svg">
<path d="M100.056 4.60129C100.879 -1.49947 107.655 -1.46872 108.616 4.30764L108.691 4.88414L117.858 103.069L117.859 103.073L125.882 165.362L132.799 103.228C132.8 103.219 132.8 103.211 132.8 103.202C132.802 103.184 132.803 103.166 132.805 103.148L137.116 57.2312L137.193 56.6403C138.185 50.7313 145.189 50.928 145.781 57.2312L148.348 84.5685L148.753 82.7219L148.878 82.2301C150.264 77.4819 155.651 77.482 157.037 82.2301L157.162 82.7219L160.924 99.8947H205.509L207.237 91.1263L207.355 90.6183C208.31 87.0826 211.468 86.0914 213.657 87.6457L215.147 73.786L215.231 73.2059C216.248 67.5967 222.694 67.5966 223.711 73.2059L223.795 73.786L226.71 100.905L226.711 100.916L231.195 138.638L234.024 101.172L236.931 45.1695L236.983 44.5822C237.717 38.6777 244.61 38.3069 245.568 44.4615L254.311 100.657L257.378 117.181L260.274 102.482L263.926 79.9817L264.033 79.4466C265.252 74.268 271.15 74.268 272.369 79.4466L272.475 79.9817L275.708 99.8947H359.591C361.197 99.8947 362.5 101.547 362.5 103.584C362.5 105.622 361.197 107.274 359.591 107.274H273.627C272.98 107.274 272.384 107.003 271.901 106.55C271.176 106.048 270.622 105.161 270.442 104.055L268.201 90.2454L265.959 104.055C265.956 104.077 265.949 104.098 265.945 104.119C265.94 104.148 265.938 104.177 265.932 104.206L261.567 126.346L261.449 126.857C260.068 131.967 254.102 131.744 253.086 126.272L248.64 102.311C248.634 102.279 248.631 102.247 248.626 102.215C248.624 102.204 248.621 102.192 248.619 102.181L242.009 59.7066L239.83 101.707C239.829 101.726 239.826 101.745 239.824 101.765C239.823 101.782 239.824 101.8 239.823 101.817L235.858 154.249L235.793 154.838C234.94 160.563 228.385 160.787 227.29 155.13L227.199 154.544L220.958 102.015C220.957 102.006 220.956 101.997 220.955 101.988C220.955 101.98 220.953 101.973 220.953 101.965L219.471 88.1879L217.989 101.965C217.974 102.107 217.95 102.245 217.923 102.381L217.93 102.415C218.319 104.392 217.372 106.396 215.813 106.89C214.255 107.384 212.674 106.182 212.285 104.206L211.471 100.073L210.657 104.206C210.325 105.89 209.129 107.007 207.818 106.997C207.478 107.174 207.106 107.274 206.715 107.274H158.712C158.704 107.274 158.695 107.272 158.687 107.272C158.607 107.271 158.528 107.265 158.449 107.256C158.433 107.254 158.417 107.253 158.401 107.251C158.324 107.24 158.248 107.226 158.172 107.207C158.151 107.202 158.129 107.197 158.107 107.191C158.046 107.175 157.985 107.155 157.925 107.133C157.889 107.121 157.853 107.108 157.817 107.094C157.777 107.077 157.739 107.057 157.699 107.038C157.647 107.013 157.594 106.989 157.543 106.961C157.521 106.948 157.5 106.934 157.478 106.921C157.415 106.884 157.353 106.846 157.293 106.804C157.254 106.776 157.217 106.745 157.179 106.716C157.141 106.685 157.102 106.655 157.064 106.622C157.022 106.585 156.981 106.545 156.939 106.505C156.906 106.473 156.873 106.441 156.841 106.407C156.805 106.369 156.771 106.328 156.736 106.287C156.704 106.249 156.672 106.213 156.641 106.173C156.602 106.124 156.567 106.071 156.53 106.018C156.503 105.979 156.475 105.94 156.449 105.899C156.424 105.86 156.401 105.819 156.377 105.779C156.345 105.724 156.313 105.668 156.283 105.611C156.257 105.56 156.232 105.507 156.208 105.454C156.183 105.401 156.157 105.348 156.134 105.292C156.115 105.247 156.1 105.2 156.083 105.154C156.06 105.091 156.035 105.029 156.015 104.964C155.998 104.913 155.985 104.86 155.971 104.808C155.952 104.74 155.934 104.673 155.918 104.604C155.916 104.593 155.912 104.582 155.909 104.572L152.958 91.0957L150.006 104.572C149.966 104.752 149.914 104.927 149.854 105.096C149.824 105.18 149.793 105.263 149.759 105.343C149.703 105.471 149.642 105.595 149.575 105.714C149.467 105.909 149.345 106.088 149.21 106.251C149.173 106.295 149.137 106.34 149.098 106.382C149.083 106.399 149.067 106.415 149.051 106.431C148.754 106.742 148.405 106.978 148.02 107.121C147.961 107.143 147.902 107.165 147.842 107.182C147.834 107.185 147.825 107.185 147.817 107.188C147.729 107.212 147.641 107.233 147.551 107.247L147.547 107.249C147.535 107.251 147.523 107.249 147.511 107.251C147.428 107.262 147.343 107.27 147.258 107.272C147.236 107.273 147.213 107.27 147.19 107.27C147.119 107.27 147.048 107.269 146.976 107.261C146.925 107.256 146.874 107.246 146.824 107.238C146.783 107.231 146.741 107.226 146.7 107.216C146.618 107.198 146.538 107.175 146.459 107.148C146.448 107.144 146.436 107.143 146.425 107.139L146.42 107.137C146.211 107.063 146.011 106.958 145.822 106.829C145.541 106.637 145.293 106.389 145.081 106.101C144.679 105.557 144.402 104.858 144.319 104.065L144.318 104.058L144.314 104.02L141.449 73.4942L138.59 103.939L130.402 181C129.919 187.322 122.912 187.708 121.824 181.821L112.098 104.096C112.096 104.086 112.096 104.076 112.095 104.065C112.093 104.05 112.091 104.034 112.089 104.019L104.094 18.4213L92.5256 104.206L92.5213 104.233L88.1986 134.934C87.3686 140.825 80.889 141.009 79.7053 135.487L79.6073 134.934L75.2846 104.233C75.2833 104.224 75.2831 104.213 75.2818 104.204C75.28 104.19 75.2764 104.176 75.2747 104.163L70.0912 62.845L64.9091 104.163C64.9065 104.183 64.9006 104.204 64.8977 104.224C64.8871 104.301 64.8752 104.377 64.8608 104.453C64.8518 104.5 64.8428 104.547 64.8324 104.593C64.8173 104.661 64.8007 104.727 64.7827 104.793C64.7683 104.846 64.7534 104.898 64.7372 104.95C64.7184 105.01 64.6974 105.068 64.6761 105.127C64.6583 105.176 64.6402 105.225 64.6207 105.272C64.5956 105.334 64.569 105.395 64.5412 105.454C64.5207 105.498 64.4991 105.541 64.4773 105.584C64.4517 105.634 64.4252 105.683 64.3977 105.732C64.3686 105.783 64.3393 105.834 64.3082 105.883C64.279 105.93 64.2482 105.974 64.2173 106.018C64.1882 106.06 64.1598 106.103 64.1292 106.143C64.1006 106.18 64.071 106.216 64.0412 106.253C63.9996 106.303 63.9571 106.351 63.9133 106.398C63.8791 106.435 63.8438 106.47 63.8082 106.505C63.7776 106.535 63.7474 106.565 63.7159 106.593C63.6682 106.636 63.6193 106.676 63.5695 106.716C63.5399 106.739 63.5103 106.762 63.48 106.784C63.4275 106.822 63.374 106.858 63.3195 106.892C63.2886 106.911 63.2573 106.93 63.2258 106.948C63.1778 106.975 63.1288 106.999 63.0795 107.024C63.0375 107.044 62.9958 107.065 62.953 107.083C62.9095 107.101 62.8654 107.118 62.8209 107.133C62.7702 107.152 62.7191 107.168 62.6675 107.182C62.6261 107.194 62.5845 107.203 62.5425 107.213C62.4958 107.223 62.4492 107.234 62.4019 107.242C62.3483 107.25 62.2944 107.257 62.2399 107.261C62.1942 107.265 62.1483 107.267 62.1021 107.269C62.0804 107.269 62.0587 107.274 62.0368 107.274L-0.0907602 107.274C-1.69749 107.274 -3 105.622 -3 103.584C-2.9999 101.547 -1.69743 99.8947 -0.0907602 99.8947L59.5523 99.8947L65.7827 50.232L65.8736 49.6663C66.962 44.2012 73.2216 44.2014 74.3102 49.6663L74.4011 50.232L81.0108 102.934L81.0122 102.936L83.903 123.469L86.7895 102.963L100.056 4.60129Z" fill="#770000"/>
</svg>
